<?xml version="1.0" encoding="UTF-8" standalone="no"?>
<svg
   xmlns:dc="http://purl.org/dc/elements/1.1/"
   xmlns:cc="http://creativecommons.org/ns#"
   xmlns:rdf="http://www.w3.org/1999/02/22-rdf-syntax-ns#"
   xmlns:svg="http://www.w3.org/2000/svg"
   xmlns="http://www.w3.org/2000/svg"
   xmlns:sodipodi="http://sodipodi.sourceforge.net/DTD/sodipodi-0.dtd"
   xmlns:inkscape="http://www.inkscape.org/namespaces/inkscape"
   sodipodi:docname="webapp.svg"
   inkscape:version="1.0 (4035a4f, 2020-05-01)"
   inkscape:export-ydpi="100.8"
   inkscape:export-xdpi="100.8"
   inkscape:export-filename="/Users/tcard/canastic/citaprevia/landing/images/webapp.png"
   id="svg889"
   version="1.1"
   viewBox="0 0 31.749999 10.583334"
   height="40"
   width="120">
  <defs
     id="defs883" />
  <sodipodi:namedview
     inkscape:window-maximized="0"
     inkscape:window-y="23"
     inkscape:window-x="116"
     inkscape:window-height="775"
     inkscape:window-width="1252"
     units="px"
     showgrid="false"
     inkscape:document-rotation="0"
     inkscape:current-layer="layer1"
     inkscape:document-units="mm"
     inkscape:cy="20"
     inkscape:cx="240"
     inkscape:zoom="1"
     inkscape:pageshadow="2"
     inkscape:pageopacity="0.0"
     borderopacity="1.0"
     bordercolor="#666666"
     pagecolor="#ffffff"
     id="base" />
  <metadata
     id="metadata886">
    <rdf:RDF>
      <cc:Work
         rdf:about="">
        <dc:format>image/svg+xml</dc:format>
        <dc:type
           rdf:resource="http://purl.org/dc/dcmitype/StillImage" />
        <dc:title></dc:title>
      </cc:Work>
    </rdf:RDF>
  </metadata>
  <g
     id="layer1"
     inkscape:groupmode="layer"
     inkscape:label="Layer 1">
    <rect
       ry="2.4086206"
       y="-2.220446e-16"
       x="0"
       height="10.583333"
       width="31.75"
       id="rect1452"
       style="fill:#000000;fill-opacity:1;stroke-width:15.368" />
    <g
       transform="matrix(0.26458333,0,0,0.26458333,-204.28394,-92.360232)"
       id="g3208" />
    <g
       transform="matrix(0.71686141,0,0,0.74444673,148.37758,67.834629)"
       id="g3926">
      <g
         id="g3202"
         transform="matrix(0.02084353,0,0,0.02084353,-204.28394,-88.934713)"
         style="fill:#ffffff;fill-opacity:1">
        <g
           id="g3200"
           style="fill:#ffffff;fill-opacity:1">
          <path
             id="path3198"
             d="M 471.24,14.054 H 40.749 C 18.281,14.054 0,32.332 0,54.803 v 59.224 c 0,4.602 3.731,8.332 8.332,8.332 4.602,0 8.332,-3.731 8.332,-8.332 V 54.803 c 0,-13.281 10.805,-24.085 24.085,-24.085 h 430.49 c 13.287,0 24.096,10.805 24.096,24.085 v 284.412 h -32.462 v -103.01 c 0,-16.17 -13.155,-29.324 -29.324,-29.324 H 312.226 c -16.17,0 -29.324,13.155 -29.324,29.324 V 395.241 H 40.749 c -13.28,0 -24.085,-10.805 -24.085,-24.085 V 355.881 H 263.46 c 4.602,0 8.332,-3.731 8.332,-8.332 0,-4.602 -3.731,-8.332 -8.332,-8.332 H 16.664 V 141.801 c 0,-4.602 -3.731,-8.332 -8.332,-8.332 C 3.731,133.469 0,137.2 0,141.801 v 229.354 c 0,22.47 18.281,40.749 40.749,40.749 h 142.787 l -20.495,47.948 h -40.027 c -4.602,0 -8.332,3.731 -8.332,8.332 0,4.602 3.731,8.332 8.332,8.332 h 45.526 92.856 1.111 c 4.602,0 8.332,-3.731 8.332,-8.332 0,-4.602 -3.731,-8.332 -8.332,-8.332 h -1.111 -80.233 l 14.241,-33.317 h 87.497 v 42.086 c 0,16.17 13.155,29.324 29.324,29.324 h 121.323 c 16.17,0 29.324,-13.155 29.324,-29.324 V 355.879 h 32.462 v 15.275 c 0,9.701 -5.778,18.413 -14.72,22.196 -4.238,1.793 -6.221,6.681 -4.428,10.919 1.344,3.18 4.43,5.089 7.678,5.089 1.082,0 2.183,-0.212 3.242,-0.66 15.121,-6.396 24.892,-21.132 24.892,-37.543 V 54.803 C 512,32.332 493.715,14.054 471.24,14.054 Z M 299.564,236.205 v 0 c 10e-4,-6.981 5.68,-12.66 12.661,-12.66 h 121.323 c 6.981,0 12.66,5.679 12.66,12.66 V 430.18 H 299.564 Z M 446.21,468.623 c 0,6.98 -5.679,12.66 -12.661,12.66 H 312.226 c -6.981,0 -12.66,-5.679 -12.66,-12.66 V 446.844 H 446.21 Z"
             style="fill:#ffffff;fill-opacity:1" />
        </g>
      </g>
      <g
         id="g3206"
         style="fill:#ffffff;fill-opacity:1"
         transform="matrix(0.02084353,0,0,0.02084353,-204.28394,-88.934713)">
        <path
           id="path3204"
           d="m 262.924,368.955 c -3.987,-6.049 -13.707,-4.123 -15.098,3 -0.672,3.44 0.933,7.043 3.962,8.811 3.025,1.765 6.959,1.424 9.621,-0.855 3.18,-2.722 3.811,-7.47 1.515,-10.956 z"
           style="fill:#ffffff;fill-opacity:1" />
      </g>
      <g
         id="g3214"
         transform="matrix(0.02084353,0,0,0.02084353,-204.28394,-88.934713)"
         style="fill:#ffffff;fill-opacity:1">
        <g
           id="g3212"
           style="fill:#ffffff;fill-opacity:1">
          <path
             id="path3210"
             d="m 380.584,460.874 c -1.324,-3.138 -4.479,-5.226 -7.901,-5.138 -3.412,0.087 -6.483,2.309 -7.633,5.519 -1.173,3.277 -0.134,7.034 2.553,9.246 2.799,2.304 6.888,2.494 9.904,0.494 3.292,-2.184 4.536,-6.478 3.077,-10.121 z"
             style="fill:#ffffff;fill-opacity:1" />
        </g>
      </g>
      <g
         id="g3220"
         transform="matrix(0.02084353,0,0,0.02084353,-204.28394,-88.934713)"
         style="fill:#ffffff;fill-opacity:1">
        <g
           id="g3218"
           style="fill:#ffffff;fill-opacity:1">
          <path
             id="path3216"
             d="m 395.662,233.543 h -45.549 c -4.602,0 -8.332,3.731 -8.332,8.332 0,4.602 3.731,8.332 8.332,8.332 h 45.549 c 4.602,0 8.332,-3.731 8.332,-8.332 0,-4.602 -3.73,-8.332 -8.332,-8.332 z"
             style="fill:#ffffff;fill-opacity:1" />
        </g>
      </g>
    </g>
    <g
       transform="matrix(0.26458333,0,0,0.26458333,-204.28394,-92.360232)"
       id="g3222" />
    <g
       transform="matrix(0.26458333,0,0,0.26458333,-204.28394,-92.360232)"
       id="g3224" />
    <g
       transform="matrix(0.26458333,0,0,0.26458333,-204.28394,-92.360232)"
       id="g3226" />
    <g
       transform="matrix(0.26458333,0,0,0.26458333,-204.28394,-92.360232)"
       id="g3228" />
    <g
       transform="matrix(0.26458333,0,0,0.26458333,-204.28394,-92.360232)"
       id="g3230" />
    <g
       transform="matrix(0.26458333,0,0,0.26458333,-204.28394,-92.360232)"
       id="g3232" />
    <g
       transform="matrix(0.26458333,0,0,0.26458333,-204.28394,-92.360232)"
       id="g3234" />
    <g
       transform="matrix(0.26458333,0,0,0.26458333,-204.28394,-92.360232)"
       id="g3236" />
    <g
       transform="matrix(0.26458333,0,0,0.26458333,-204.28394,-92.360232)"
       id="g3238" />
    <g
       transform="matrix(0.26458333,0,0,0.26458333,-204.28394,-92.360232)"
       id="g3240" />
    <g
       transform="matrix(0.26458333,0,0,0.26458333,-204.28394,-92.360232)"
       id="g3242" />
    <g
       transform="matrix(0.26458333,0,0,0.26458333,-204.28394,-92.360232)"
       id="g3244" />
    <g
       transform="matrix(0.26458333,0,0,0.26458333,-204.28394,-92.360232)"
       id="g3246" />
    <g
       transform="matrix(0.26458333,0,0,0.26458333,-204.28394,-92.360232)"
       id="g3248" />
    <g
       transform="matrix(0.26458333,0,0,0.26458333,-204.28394,-92.360232)"
       id="g3250" />
    <text
       transform="scale(0.89226268,1.1207462)"
       id="text3930"
       y="4.9750886"
       x="22.459826"
       style="font-style:normal;font-variant:normal;font-weight:bold;font-stretch:normal;font-size:4.34005px;line-height:1.05;font-family:Arial;-inkscape-font-specification:'Arial Bold';text-align:center;text-anchor:middle;fill:#ffffff;fill-opacity:1;stroke:none;stroke-width:0.325503"
       xml:space="preserve"><tspan
         id="tspan3936"
         style="font-style:normal;font-variant:normal;font-weight:bold;font-stretch:normal;font-size:4.34005px;font-family:Arial;-inkscape-font-specification:'Arial Bold';text-align:center;text-anchor:middle;fill:#ffffff;fill-opacity:1;stroke-width:0.325503"
         y="4.9750886"
         x="22.459826"
         sodipodi:role="line"> WEB APP</tspan></text>
    <text
       transform="scale(0.96679336,1.0343472)"
       id="text3942"
       y="8.6047592"
       x="11.794501"
       style="font-size:2.75967px;line-height:1.25;font-family:sans-serif;fill:#ffffff;fill-opacity:1;stroke-width:0.68992"
       xml:space="preserve"><tspan
         style="font-style:normal;font-variant:normal;font-weight:bold;font-stretch:condensed;font-size:2.75967px;font-family:'Arial Narrow';-inkscape-font-specification:'Arial Narrow Bold Condensed';fill:#ffffff;fill-opacity:1;stroke-width:0.68992"
         y="8.6047592"
         x="11.794501"
         id="tspan3940"
         sodipodi:role="line">escritorio o móvil</tspan></text>
  </g>
</svg>
